Coordinates
version=1
nRows=16
nColumns=36
inDegrees=yes

Units are S.I. units (second, meters, Newtons, ...)
If the header above contains a line with 'inDegrees', this indicates whether rotational values are in degrees (yes) or radians (no).

endheader
time	pelvis_tilt	pelvis_list	pelvis_rotation	pelvis_tx	pelvis_ty	pelvis_tz	hip_flexion_r	hip_adduction_r	hip_rotation_r	knee_angle_r	knee_angle_r_beta	ankle_angle_r	subtalar_angle_r	mtp_angle_r	hip_flexion_l	hip_adduction_l	hip_rotation_l	knee_angle_l	knee_angle_l_beta	ankle_angle_l	subtalar_angle_l	mtp_angle_l	lumbar_extension	lumbar_bending	lumbar_rotation	arm_flex_r	arm_add_r	arm_rot_r	elbow_flex_r	pro_sup_r	arm_flex_l	arm_add_l	arm_rot_l	elbow_flex_l	pro_sup_l
      1.90000000	     -7.68623002	      0.23548890	     -3.97469396	      1.35811606	      1.28771463	     -0.18242908	      3.75836768	     -3.08658040	    -21.64785557	      5.02002612	      0.08761598	    -15.96363804	      5.42974553	     -7.49999987	      4.64444036	     -7.48841566	    -20.56862364	      7.54638836	      0.13170932	    -14.10429978	      5.02814005	     -7.49999987	      4.33125735	      1.92436838	      6.72581738	    -26.35348634	    -22.98705703	    -14.40763057	     46.51661538	     86.06386059	    -16.08041192	    -34.37981040	    -32.87931496	     51.77822961	     90.43244805
      1.91666670	     -7.25129006	      0.22333192	     -3.82317837	      1.36812138	      1.29983003	     -0.18320915	      3.23434314	     -2.78933123	    -21.88730119	      6.45156141	      0.11260099	    -17.78452497	      4.64819707	     -7.49999987	      3.99611434	     -7.06409902	    -19.68377777	      8.59864768	      0.15007471	    -14.09031495	      5.66411434	     -7.49999987	      4.97836973	      2.21122477	      5.28747445	    -23.73962322	    -21.29441532	    -11.52584729	     37.33410807	     84.55361535	    -16.33907583	    -31.29766185	    -31.36468665	     45.06157694	     89.43692662
      1.93333330	     -7.00993909	     -0.00414929	     -3.59708461	      1.36466262	      1.31283895	     -0.18003276	      3.37842169	     -2.27992495	    -21.46470806	      8.50949968	      0.14851879	    -18.57373786	      3.34912229	     -7.49999987	      3.89237611	     -7.02459970	    -18.43746912	      9.40721384	      0.16418685	    -14.22050780	      5.79516524	     -7.49999987	      5.55920872	      2.54162924	      3.49012901	    -20.17803904	    -20.41605303	     -5.38454474	     28.53628509	     81.56990928	    -16.28649271	    -28.89493669	    -29.04165867	     37.68349456	     88.21905406
      1.95000000	     -6.99884504	     -0.35855406	     -3.18174271	      1.36650959	      1.32772841	     -0.18045139	      3.57998253	     -1.60974848	    -21.28348822	      9.70554116	      0.16939365	    -18.33729513	      2.53537143	     -7.49999987	      3.86118792	     -7.13792795	    -18.11542525	      9.32250370	      0.16270838	    -13.94257178	      6.30662254	     -7.49999987	      6.06624186	      2.89013179	      1.85645475	    -17.09499446	    -19.30143063	     -0.30232704	     20.98348953	     76.75073154	    -16.43254371	    -26.23168996	    -27.47941896	     31.34973167	     86.30400962
      1.96666670	     -7.16658768	     -0.55400565	     -2.88731314	      1.37195461	      1.33563375	     -0.17819205	      3.76488003	     -1.11591948	    -20.86902200	     10.45340754	      0.18244638	    -16.93723033	      2.09606068	     -7.49999987	      3.71356925	     -7.18172566	    -17.90597382	      8.72732243	      0.15232051	    -13.79054033	      6.15521711	     -7.49999987	      6.61226135	      3.10367906	      0.69100822	    -15.98138960	    -18.08285512	     -0.19572705	     16.34489891	     75.42273583	    -16.81371353	    -24.20868255	    -26.76579626	     27.17471727	     86.03839102
      1.98333330	     -7.27674029	     -0.67428134	     -2.65247932	      1.37738392	      1.34044992	     -0.17654690	      3.65188048	     -0.76183558	    -20.73093007	     10.41423428	      0.18176268	    -15.81053016	      1.92457763	     -7.49999987	      3.48907496	     -7.32847705	    -18.41409202	      8.09513162	      0.14128670	    -13.92736463	      5.64325448	     -7.49999987	      7.19453743	      3.15362306	     -0.37637204	    -14.89590705	    -16.94119479	      1.12318175	     13.54799306	     73.97309525	    -17.82401106	    -22.35890087	    -25.44138163	     22.20487710	     85.53712869
      2.00000000	     -7.71079454	     -0.67427174	     -2.68457862	      1.37369334	      1.34760901	     -0.17333000	      3.77938215	     -0.50716737	    -20.68357867	      9.77493112	      0.17060473	    -14.87337378	      2.28189685	     -7.49999987	      3.73805067	     -7.46991589	    -19.23993028	      7.27698516	      0.12700735	    -14.11222670	      5.23261218	     -7.49999987	      7.85971915	      3.10281913	     -0.76988329	    -13.48137725	    -16.26788394	      8.76442062	     12.09666567	     61.95139769	    -16.64281695	    -21.42645767	    -18.05851809	     17.07846307	     79.07751684
      2.01666670	     -8.10053532	     -0.73423216	     -2.80048154	      1.37490682	      1.35119296	     -0.17372805	      3.84489187	     -0.28511001	    -20.75644401	      8.88588034	      0.15508787	    -14.55102260	      2.43365722	     -7.49999987	      3.82282814	     -7.58127347	    -19.96551746	      6.24979883	      0.10907957	    -14.32294242	      4.92916457	     -7.49999987	      8.34349914	      3.17219463	     -0.75781551	    -13.19755634	    -15.80453757	      8.77374438	     12.22691366	     61.93000674	    -17.51430175	    -19.78297158	    -17.76341495	     16.37208894	     79.14552228
      2.03333330	     -8.61487834	     -0.52337769	     -2.82302227	      1.37415719	      1.34913731	     -0.17333355	      3.97152899	     -0.46546258	    -20.64789828	      7.93713119	      0.13852907	    -13.86395374	      3.32917744	     -7.49999987	      4.27623152	     -7.47890885	    -20.37543722	      5.57828440	      0.09735943	    -14.79378200	      4.79559604	     -7.49999987	      8.98139167	      2.93980245	     -2.56910223	    -11.20400025	    -15.43031183	      9.48468369	     11.21316493	     61.58392623	    -18.76349987	    -18.02607653	    -14.84298879	     15.34352609	     74.93505758
      2.05000000	     -8.97186649	     -0.33793703	     -3.17178691	      1.37462737	      1.34320020	     -0.16791674	      3.95904988	     -0.54163836	    -20.12321253	      6.97597543	      0.12175374	    -12.72934812	      4.06883116	     -7.49999987	      4.42547058	     -7.52114801	    -20.58098498	      4.88238467	      0.08521369	    -14.62424312	      4.90801001	     -7.49999987	      9.36332132	      2.73648222	     -2.90726707	    -10.58785240	    -15.31357619	     11.39027952	     11.60995817	     62.06427154	    -20.05534619	    -16.78894687	    -12.25131534	     14.99223540	     74.09771668
      2.06666670	     -9.24241323	     -0.11894611	     -3.45082432	      1.37344108	      1.33381477	     -0.16737688	      3.98845453	     -0.73742657	    -19.53317888	      6.28597203	      0.10971091	    -11.54743565	      4.96862622	     -7.49999987	      4.59357466	     -7.47760397	    -20.64229109	      4.23358531	      0.07389000	    -14.03060290	      5.28231849	     -7.49999987	      9.69694364	      2.47133998	     -3.14206312	    -10.13575523	    -15.17586397	     11.71578692	     12.28875160	     62.31364005	    -21.66471108	    -15.51701384	    -11.51106386	     15.63861075	     73.42335893
      2.08333330	     -9.39801996	      0.05882548	     -3.57265772	      1.36415746	      1.32638193	     -0.16697296	      4.35881418	     -0.99058413	    -18.91617815	      6.00375072	      0.10478522	    -10.53564409	      5.44689651	     -7.49999987	      5.03017990	     -7.58320711	    -20.45971647	      3.98709809	      0.06958799	    -14.27162565	      5.37743614	     -7.49999987	      9.47040352	      2.18278573	     -3.51545836	     -9.27286261	    -15.51889223	     14.38307357	     13.35602479	     64.15447210	    -22.70673927	    -14.65479278	     -9.42075003	     18.11038699	     73.72825170
      2.10000000	     -9.30170949	      0.18344077	     -3.85558787	      1.36838231	      1.30819021	     -0.16383943	      4.35020947	     -1.25394242	    -18.38130826	      5.84699341	      0.10204929	     -9.71125391	      5.47145407	     -7.49999987	      4.92545958	     -7.79730321	    -20.36540991	      4.01305607	      0.07004104	    -14.20943429	      5.55505744	     -7.49999987	      9.17994553	      2.03980429	     -3.25066826	     -9.25018246	    -15.53344667	     14.80607077	     14.47879487	     64.47579037	    -23.73173322	    -13.56901504	     -8.97029544	     19.38830477	     73.62603715
      2.11666670	     -9.35279646	      0.21167659	     -3.83411595	      1.36726085	      1.29410518	     -0.16436223	      4.39422557	     -1.57130083	    -17.96396482	      5.66157717	      0.09881316	     -9.20592171	      5.50075547	     -7.49999987	      5.15858187	     -8.02879879	    -19.87029215	      4.06229191	      0.07090037	    -14.25636492	      5.77527817	     -7.49999987	      9.09574390	      2.05261185	     -2.95411176	     -9.21717278	    -15.40456449	     14.86430062	     14.69854573	     64.51014414	    -23.81710722	    -12.58001208	     -8.79882853	     19.58828712	     73.63619355
      2.13333330	     -9.43463375	      0.21709405	     -3.63325950	      1.36112502	      1.27643639	     -0.16673411	      4.72985045	     -2.02149124	    -17.22896108	      5.72984389	      0.10000464	     -8.66213379	      5.61192155	     -7.49999987	      5.60426290	     -8.24391304	    -19.35451886	      4.31411387	      0.07529549	    -14.26480411	      5.89742724	     -7.49999987	      8.93478839	      2.21691442	     -2.73157596	     -8.60341475	    -15.71587420	     14.92135993	     15.27383827	     64.56732889	    -23.32067185	    -11.83761095	     -8.58964176	     20.22277319	     73.61707579
      2.15000000	     -9.17528549	      0.26288915	     -3.58905053	      1.36059546	      1.25322118	     -0.16152264	      4.77927008	     -2.50400530	    -16.69582635	      6.04075412	      0.10543105	     -8.02287487	      5.54675029	     -7.49999987	      5.88181693	     -8.54032220	    -19.17097822	      4.78892430	      0.08358250	    -14.49345349	      5.70181211	     -7.49999987	      8.24868130	      2.30829863	     -2.83928463	     -6.73643269	    -15.96285352	     18.56093905	     14.46429087	     67.88862962	    -22.83219939	    -11.62477256	     -5.30599440	     20.49802321	     74.50795572
